<svg width="158" height="63" viewBox="0 0 158 63" fill="none" xmlns="http://www.w3.org/2000/svg">
<g clip-path="url(#clip0_3084_9638)">
<path d="M158 42.0616H143.151V38.7023L153.342 24.757H143.377V21.426H157.831V24.6441L147.555 38.7306H158V42.0616Z" fill="#24086D"/>
<path d="M134.115 28.0599V31.2498H132.845C130.361 31.2498 128.808 32.5766 128.808 35.2866V42.0617H125.364V28.1446H128.61L128.808 30.1771C129.401 28.7939 130.728 27.8623 132.591 27.8623C133.071 27.8623 133.55 27.9188 134.115 28.0599Z" fill="#24086D"/>
<path d="M115.889 42.4287C111.739 42.4287 108.832 39.4082 108.832 35.0891C108.832 30.7135 111.683 27.693 115.776 27.693C119.954 27.693 122.608 30.4877 122.608 34.835V35.8795L112.106 35.9077C112.36 38.3637 113.659 39.6058 115.945 39.6058C117.837 39.6058 119.079 38.8718 119.474 37.545H122.664C122.071 40.5938 119.531 42.4287 115.889 42.4287ZM115.804 30.5159C113.772 30.5159 112.53 31.6168 112.191 33.7058H119.192C119.192 31.7862 117.865 30.5159 115.804 30.5159Z" fill="#24086D"/>
<path d="M94.1289 48.5264V45.647H96.1896C97.5446 45.647 98.3915 45.3364 98.9843 43.6991L99.3796 42.6546L93.7619 28.1165H97.4035L100.989 38.2791L104.771 28.1165H108.328L101.497 45.1671C100.452 47.7642 98.9843 48.8369 96.6978 48.8369C95.738 48.8369 94.8911 48.724 94.1289 48.5264Z" fill="#24086D"/>
<path d="M84.4126 42.4287C81.4485 42.4287 79.6418 40.7067 79.6418 38.0814C79.6418 35.5125 81.505 33.9034 84.8078 33.6494L88.9858 33.3388V33.0283C88.9858 31.1369 87.8566 30.3748 86.1064 30.3748C84.0739 30.3748 82.9447 31.2216 82.9447 32.6896H80.0088C80.0088 29.669 82.493 27.693 86.2758 27.693C90.0303 27.693 92.3451 29.7255 92.3451 33.5929V42.0617H89.3245L89.0705 40.001C88.4776 41.4407 86.5863 42.4287 84.4126 42.4287ZM85.5418 39.8316C87.659 39.8316 89.014 38.5613 89.014 36.4158V35.6819L86.1064 35.9077C83.9609 36.1053 83.1423 36.8111 83.1423 37.9402C83.1423 39.2106 83.9892 39.8316 85.5418 39.8316Z" fill="#24086D"/>
<path d="M69.1944 21.426V38.7306H77.8326V42.0616H65.5811V21.426H69.1944Z" fill="#24086D"/>
<g clip-path="url(#clip1_3084_9638)">
<path d="M28.4409 9.19828L6.93881 21.5809V45.1261L0 49.1152V16.3717L28.4365 0L28.4409 9.19828Z" fill="#712CF6"/>
<path d="M38.3522 16.1164L31.4264 20.1012L29.938 20.9579V20.9622L28.4452 21.8145L16.8458 28.4947V52.0399L9.91132 56.0333V23.2899L28.4408 12.6162L29.9336 11.7639L31.4221 10.9029L38.3478 6.91815L38.3522 16.1164Z" fill="#F3389E"/>
<path d="M48.2592 13.832L41.3334 17.8168L39.845 18.6778L38.3522 19.5344L31.4264 23.5279L29.938 24.3845L28.4452 25.2412L19.8184 30.2124V62.9558L48.2722 46.5885L48.2592 13.8407V13.832ZM40.3354 43.3392L27.7596 50.5775V47.0687L35.4014 32.5531L27.9939 36.8234V33.3535L40.1054 26.3834V29.7322L32.3464 44.4728L40.3397 39.8736V43.3349L40.3354 43.3392Z" fill="#5B95FF"/>
</g>
</g>
<defs>
<clipPath id="clip0_3084_9638">
<rect width="158" height="62.9515" fill="white"/>
</clipPath>
<clipPath id="clip1_3084_9638">
<rect width="48.2722" height="62.9515" fill="white"/>
</clipPath>
</defs>
</svg>
